<?xml version="1.0" encoding="utf-8"?>
<!-- Generator: Adobe Illustrator 16.0.3, SVG Export Plug-In . SVG Version: 6.00 Build 0)  -->
<!DOCTYPE svg PUBLIC "-//W3C//DTD SVG 1.1//EN" "http://www.w3.org/Graphics/SVG/1.1/DTD/svg11.dtd">
<svg version="1.1" xmlns="http://www.w3.org/2000/svg" xmlns:xlink="http://www.w3.org/1999/xlink" x="0px" y="0px" width="24px"
	 height="24px" viewBox="0 0 24 24" enable-background="new 0 0 24 24" xml:space="preserve">
<g id="Outline_Icons">
	<g>
		<path d="M23.5,5C23.224,5,23,5.224,23,5.5V23H5.5C5.224,23,5,23.224,5,23.5S5.224,24,5.5,24h18c0.276,0,0.5-0.224,0.5-0.5v-18
			C24,5.224,23.776,5,23.5,5z"/>
		<path d="M22,21.5v-19C22,2.224,21.776,2,21.5,2S21,2.224,21,2.5V21H2.5C2.224,21,2,21.224,2,21.5S2.224,22,2.5,22h19
			C21.776,22,22,21.776,22,21.5z"/>
		<path d="M20,19.5v-19C20,0.224,19.776,0,19.5,0h-19C0.224,0,0,0.224,0,0.5v19C0,19.776,0.224,20,0.5,20h19
			C19.776,20,20,19.776,20,19.5z M19,1v14h-1.653l-2.878-7.676c-0.066-0.175-0.225-0.299-0.411-0.321
			c-0.187-0.022-0.369,0.063-0.473,0.22l-3.628,5.442L7.884,10.18c-0.104-0.124-0.261-0.191-0.423-0.178
			c-0.162,0.013-0.307,0.103-0.39,0.241L4.217,15H1V1H19z M16.278,15H5.383l2.184-3.639l2.049,2.459
			c0.101,0.121,0.237,0.184,0.411,0.179c0.157-0.009,0.302-0.091,0.389-0.222l3.458-5.188L16.278,15z M1,19v-3h18v3H1z"/>
		<path d="M6,7c1.103,0,2-0.897,2-2S7.103,3,6,3S4,3.897,4,5S4.897,7,6,7z M6,4c0.551,0,1,0.449,1,1S6.551,6,6,6S5,5.551,5,5
			S5.449,4,6,4z"/>
	</g>
</g>
<g id="Invisible_Shape">
	<rect fill="none" width="24" height="24"/>
</g>
</svg>
