<svg xmlns="http://www.w3.org/2000/svg" xmlns:xlink="http://www.w3.org/1999/xlink"><symbol id="icon_before-the-purchase" viewBox="0 0 24 24">
<g id="Outline_Icons_1_">
	<g id="Outline_Icons">
		<g>
			<path fill="none" stroke="#000000" stroke-linecap="round" stroke-linejoin="round" stroke-miterlimit="10" d="M7.5,15.5V4
				c0-0.828,0.671-1.5,1.5-1.5c0.828,0,1.5,0.672,1.5,1.5v4.5h2c0.552,0,1,0.448,1,1h2c0.552,0,1,0.448,1,1H18
				c0.828,0,1.5,0.672,1.5,1.5v3.099c0,0.929-0.13,1.854-0.385,2.748L17.5,23.5h-9c-1.5-2-5.417-8.673-5.417-8.673
				c-0.338-0.478-0.281-1.128,0.131-1.542c0.443-0.443,1.153-0.471,1.629-0.062L7.5,15.5z"/>
			
				<line fill="none" stroke="#000000" stroke-linecap="round" stroke-linejoin="round" stroke-miterlimit="10" x1="13.5" y1="9.5" x2="13.5" y2="11.5"/>
			
				<line fill="none" stroke="#000000" stroke-linecap="round" stroke-linejoin="round" stroke-miterlimit="10" x1="10.5" y1="8" x2="10.5" y2="11.5"/>
			
				<line fill="none" stroke="#000000" stroke-linecap="round" stroke-linejoin="round" stroke-miterlimit="10" x1="16.5" y1="10.5" x2="16.5" y2="12.5"/>
		</g>
	</g>
	<g id="New_icons_1_">
	</g>
</g>
<g id="Invisible_Shape">
	<rect fill="none" width="24" height="24"/>
</g>
</symbol><symbol id="icon_formatting-content" viewBox="0 0 24 24">
<g id="Outline_Icons_1_">
	<g id="Outline_Icons">
		<g>
			
				<rect x="0.5" y="0.5" fill="none" stroke="#000000" stroke-linecap="round" stroke-linejoin="round" stroke-miterlimit="10" width="22" height="23"/>
			
				<line fill="none" stroke="#000000" stroke-linecap="round" stroke-linejoin="round" stroke-miterlimit="10" x1="11.5" y1="14.5" x2="11.5" y2="7.5"/>
			
				<line fill="none" stroke="#000000" stroke-linecap="round" stroke-linejoin="round" stroke-miterlimit="10" x1="17.531" y1="14.5" x2="17.531" y2="12.5"/>
			
				<line fill="none" stroke="#000000" stroke-linecap="round" stroke-linejoin="round" stroke-miterlimit="10" x1="5.5" y1="8.5" x2="5.5" y2="3.5"/>
			
				<line fill="none" stroke="#000000" stroke-linecap="round" stroke-linejoin="round" stroke-miterlimit="10" x1="5.5" y1="14.5" x2="5.5" y2="10.5"/>
			
				<line fill="none" stroke="#000000" stroke-linecap="round" stroke-linejoin="round" stroke-miterlimit="10" x1="17.531" y1="10.5" x2="17.531" y2="3.5"/>
			
				<line fill="none" stroke="#000000" stroke-linecap="round" stroke-linejoin="round" stroke-miterlimit="10" x1="11.5" y1="5.5" x2="11.5" y2="3.5"/>
			
				<rect x="15.531" y="10.5" fill="none" stroke="#000000" stroke-linecap="round" stroke-linejoin="round" stroke-miterlimit="10" width="4" height="2"/>
			
				<rect x="9.5" y="5.5" fill="none" stroke="#000000" stroke-linecap="round" stroke-linejoin="round" stroke-miterlimit="10" width="4" height="2"/>
			
				<rect x="3.5" y="8.5" fill="none" stroke="#000000" stroke-linecap="round" stroke-linejoin="round" stroke-miterlimit="10" width="4" height="2"/>
			
				<circle fill="none" stroke="#000000" stroke-linecap="round" stroke-linejoin="round" stroke-miterlimit="10" cx="17.542" cy="19" r="1.5"/>
			
				<circle fill="none" stroke="#000000" stroke-linecap="round" stroke-linejoin="round" stroke-miterlimit="10" cx="11.5" cy="19" r="1.5"/>
			
				<circle fill="none" stroke="#000000" stroke-linecap="round" stroke-linejoin="round" stroke-miterlimit="10" cx="5.5" cy="19" r="1.5"/>
		</g>
	</g>
	<g id="New_icons_1_">
	</g>
</g>
<g id="Invisible_Shape">
	<rect fill="none" width="24" height="24"/>
</g>
</symbol><symbol id="icon_general-info" viewBox="0 0 24 24">
<g id="Filled_Icons_1_">
	<g id="Filled_Icons">
		<path d="M11.5,1.004C5.158,1.004,0,6.162,0,12.504s5.158,11.5,11.5,11.5c6.341,0,11.5-5.158,11.5-11.5S17.841,1.004,11.5,1.004z
			 M11,6.004c0.551,0,1,0.448,1,1c0,0.553-0.449,1-1,1c-0.553,0-1-0.447-1-1C10,6.452,10.447,6.004,11,6.004z M14.5,20.004h-6
			c-0.276,0-0.5-0.224-0.5-0.5s0.224-0.5,0.5-0.5h2.499v-8H9.5c-0.276,0-0.5-0.224-0.5-0.5c0-0.276,0.224-0.5,0.5-0.5h2
			c0.275,0,0.5,0.224,0.499,0.5v8.5H14.5c0.275,0,0.5,0.224,0.5,0.5S14.775,20.004,14.5,20.004z"/>
	</g>
	<g id="New_icons">
	</g>
</g>
<g id="Invisible_Shape">
	<rect fill="none" width="24" height="24"/>
</g>
</symbol><symbol id="icon_pay-trouble" viewBox="0 0 24 24">
<g id="Outline_Icons">
	<g>
		<path fill="none" stroke="#000000" stroke-linecap="round" stroke-linejoin="round" stroke-miterlimit="10" d="M23.5,17.5
			c0,1.104-0.896,2-2,2h-19c-1.104,0-2-0.896-2-2v-10c0-1.104,0.896-2,2-2h19c1.104,0,2,0.896,2,2V17.5z"/>
		
			<line fill="none" stroke="#000000" stroke-linecap="round" stroke-linejoin="round" stroke-miterlimit="10" x1="0.5" y1="9.5" x2="23.5" y2="9.5"/>
		
			<line fill="none" stroke="#000000" stroke-linecap="round" stroke-linejoin="round" stroke-miterlimit="10" x1="20.5" y1="12.5" x2="17.5" y2="12.5"/>
		
			<line fill="none" stroke="#000000" stroke-linecap="round" stroke-linejoin="round" stroke-miterlimit="10" x1="11.5" y1="12.5" x2="3.5" y2="12.5"/>
		
			<line fill="none" stroke="#000000" stroke-linecap="round" stroke-linejoin="round" stroke-miterlimit="10" x1="6.5" y1="14.5" x2="3.5" y2="14.5"/>
	</g>
</g>
<g id="Invisible_Shape">
	<rect fill="none" width="24" height="24"/>
</g>
</symbol><symbol id="icon_purchasing-process" viewBox="0 0 24 24">
<g id="Outline_Icons">
	<g>
		<path fill="none" stroke="#000000" stroke-linecap="round" stroke-linejoin="round" stroke-miterlimit="10" d="M1.297,1.453
			L14.59,4.772c1.601,0.4,2.91,2.077,2.91,3.728v12c0,1.65-1.314,2.69-2.92,2.312L3.42,20.188C1.814,19.809,0.5,18.15,0.5,16.5v-13
			c0-1.651,1.35-3,3-3h17c1.65,0,3,1.349,3,3v11c0,1.65-1.35,3-3,3h-3"/>
		
			<line fill="none" stroke="#000000" stroke-linecap="round" stroke-linejoin="round" stroke-miterlimit="10" x1="9.5" y1="3.5" x2="19.5" y2="3.5"/>
		
			<circle fill="none" stroke="#000000" stroke-linecap="round" stroke-linejoin="round" stroke-miterlimit="10" cx="13" cy="13.5" r="2"/>
		
			<line fill="none" stroke="#000000" stroke-linecap="round" stroke-linejoin="round" stroke-miterlimit="10" x1="17.5" y1="8.5" x2="19.5" y2="8.5"/>
	</g>
</g>
<g id="Invisible_Shape">
	<rect fill="none" width="24" height="24"/>
</g>
</symbol><symbol id="icon_services" viewBox="0 0 24 24">
<g id="Outline_Icons">
	<g>
		
			<line fill="none" stroke="#000000" stroke-linecap="round" stroke-linejoin="round" stroke-miterlimit="10" x1="2.5" y1="21.5" x2="16.104" y2="7.979"/>
		<polygon fill="none" stroke="#000000" stroke-linejoin="round" stroke-miterlimit="10" points="20.795,3.274 19.734,6.457 
			21.855,8.578 18.674,8.225 16.906,11.407 16.111,7.958 12.664,7.164 15.846,5.396 15.492,2.214 17.613,4.335 		"/>
	</g>
</g>
<g id="Invisible_Shape">
	<rect x="0" fill="none" width="24" height="24"/>
</g>
</symbol><symbol id="icon_technical-guides" viewBox="0 0 24 24">
<g id="Outline_Icons_1_">
	<g id="Outline_Icons">
		<g>
			
				<circle fill="none" stroke="#000000" stroke-linecap="round" stroke-linejoin="round" stroke-miterlimit="10" cx="11.5" cy="12.5" r="11"/>
			<path fill="none" stroke="#000000" stroke-linecap="round" stroke-linejoin="round" stroke-miterlimit="10" d="M8.5,10
				c0-1.656,1.343-3,3-3c1.656,0,3,1.344,3,3c0,1.658-1.344,3-3,3v3"/>
			<path fill="none" stroke="#000000" stroke-linejoin="round" stroke-miterlimit="10" d="M12,18.5c0,0.276-0.224,0.5-0.5,0.5l0,0
				c-0.276,0-0.5-0.224-0.5-0.5l0,0c0-0.276,0.224-0.5,0.5-0.5l0,0C11.776,18,12,18.224,12,18.5L12,18.5z"/>
		</g>
	</g>
	<g id="New_icons_1_">
	</g>
</g>
<g id="Invisible_Shape">
	<rect fill="none" width="24" height="24"/>
</g>
</symbol><symbol id="icon_theme-us-trouble" viewBox="0 0 24 24">
<g id="Outline_Icons">
	<g>
		<g>
			<path fill="none" stroke="#000000" stroke-linejoin="round" stroke-miterlimit="10" d="M3.561,22.56
				c-0.586,0.587-1.537,0.587-2.121,0c-0.586-0.585-0.586-1.534,0-2.12l6.57-6.572l2.121,2.121L3.561,22.56z"/>
			
				<line fill="none" stroke="#000000" stroke-linecap="round" stroke-linejoin="round" stroke-miterlimit="10" x1="6.951" y1="12.807" x2="11.191" y2="17.049"/>
			
				<line fill="none" stroke="#000000" stroke-linejoin="round" stroke-miterlimit="10" x1="19.75" y1="4.25" x2="9.062" y2="14.938"/>
			<polygon fill="none" stroke="#000000" stroke-linejoin="round" stroke-miterlimit="10" points="20.934,5.433 18.459,2.96 22,0.5 
				23.5,2 			"/>
		</g>
		<path fill="none" stroke="#000000" stroke-linejoin="round" stroke-miterlimit="10" d="M11.89,9.812L8.145,6.068
			c0.616-1.456,0.334-3.203-0.854-4.39C6.104,0.493,4.434,0.21,2.977,0.825L5,2.934V5H2.846L0.781,3.02
			C0.165,4.478,0.448,6.186,1.635,7.372C2.821,8.56,4.568,8.823,6.023,8.207l3.746,3.738"/>
		<path fill="none" stroke="#000000" stroke-linejoin="round" stroke-miterlimit="10" d="M11.89,14.055l3.747,3.748
			c-0.616,1.456-0.334,3.202,0.854,4.389c1.187,1.186,2.933,1.468,4.39,0.853l-2.034-2.11v-2h2L23,20.923
			c0.616-1.456,0.333-3.202-0.854-4.388c-1.187-1.188-2.933-1.471-4.389-0.854l-3.745-3.747"/>
	</g>
</g>
<g id="invisible_shape">
	<rect fill="none" width="24" height="24"/>
</g>
</symbol><symbol id="icon_themes" viewBox="0 0 24 24">
<g id="Outline_Icons">
	<g>
		<path d="M23.5,5C23.224,5,23,5.224,23,5.5V23H5.5C5.224,23,5,23.224,5,23.5S5.224,24,5.5,24h18c0.276,0,0.5-0.224,0.5-0.5v-18
			C24,5.224,23.776,5,23.5,5z"/>
		<path d="M22,21.5v-19C22,2.224,21.776,2,21.5,2S21,2.224,21,2.5V21H2.5C2.224,21,2,21.224,2,21.5S2.224,22,2.5,22h19
			C21.776,22,22,21.776,22,21.5z"/>
		<path d="M20,19.5v-19C20,0.224,19.776,0,19.5,0h-19C0.224,0,0,0.224,0,0.5v19C0,19.776,0.224,20,0.5,20h19
			C19.776,20,20,19.776,20,19.5z M19,1v14h-1.653l-2.878-7.676c-0.066-0.175-0.225-0.299-0.411-0.321
			c-0.187-0.022-0.369,0.063-0.473,0.22l-3.628,5.442L7.884,10.18c-0.104-0.124-0.261-0.191-0.423-0.178
			c-0.162,0.013-0.307,0.103-0.39,0.241L4.217,15H1V1H19z M16.278,15H5.383l2.184-3.639l2.049,2.459
			c0.101,0.121,0.237,0.184,0.411,0.179c0.157-0.009,0.302-0.091,0.389-0.222l3.458-5.188L16.278,15z M1,19v-3h18v3H1z"/>
		<path d="M6,7c1.103,0,2-0.897,2-2S7.103,3,6,3S4,3.897,4,5S4.897,7,6,7z M6,4c0.551,0,1,0.449,1,1S6.551,6,6,6S5,5.551,5,5
			S5.449,4,6,4z"/>
	</g>
</g>
<g id="Invisible_Shape">
	<rect fill="none" width="24" height="24"/>
</g>
</symbol></svg>